<?xml version="1.0" encoding="utf-8"?>
<!-- Generator: Adobe Illustrator 26.1.0, SVG Export Plug-In . SVG Version: 6.00 Build 0)  -->
<svg version="1.1" id="Layer_1" xmlns="http://www.w3.org/2000/svg" xmlns:xlink="http://www.w3.org/1999/xlink" x="0px" y="0px"
	 viewBox="0 0 480 120" style="enable-background:new 0 0 480 120;" xml:space="preserve">
<style type="text/css">
	.st0{fill:#FFFFFF;}
</style>
<g>
	<path class="st0" d="M144.6,53.1c0-0.8-0.3-1.5-0.9-2.2c-0.6-0.6-1.3-0.9-2.1-0.9H136c-0.8,0-1.5,0.3-2.1,0.9
		c-0.6,0.6-0.9,1.3-0.9,2.2v22.1c0,1.2-0.4,2.2-1.2,3c-0.8,0.8-1.8,1.2-3,1.2c-1.2,0-2.2-0.4-3-1.2c-0.8-0.8-1.2-1.8-1.2-3V53.1
		c0-0.8-0.3-1.5-0.9-2.2c-0.6-0.6-1.3-0.9-2.2-0.9h-5.6c-0.9,0-1.6,0.3-2.2,0.9c-0.6,0.6-0.9,1.3-0.9,2.2v22.1c0,1.2-0.4,2.2-1.2,3
		c-0.8,0.8-1.8,1.2-3,1.2c-1.2,0-2.2-0.4-3-1.2c-0.8-0.8-1.2-1.8-1.2-3V53.1c0-1.6,0.3-3.1,0.9-4.5c0.6-1.4,1.4-2.6,2.5-3.6
		c1-1,2.3-1.9,3.6-2.5c1.4-0.6,2.9-0.9,4.5-0.9h5.6c1.4,0,2.7,0.2,3.9,0.7c1.2,0.5,2.3,1.1,3.3,1.8c1-0.7,2.1-1.4,3.3-1.8
		c1.3-0.5,2.6-0.7,3.9-0.7h5.7c1.6,0,3.1,0.3,4.4,0.9c1.4,0.6,2.6,1.4,3.6,2.5c1,1,1.9,2.3,2.4,3.6c0.6,1.4,0.9,2.9,0.9,4.5v22.1
		c0,1.2-0.4,2.2-1.2,3c-0.8,0.8-1.8,1.2-3,1.2c-1.2,0-2.2-0.4-3-1.2c-0.8-0.8-1.2-1.8-1.2-3V53.1z"/>
	<path class="st0" d="M160.4,56.1c0-1.4,0.3-2.8,0.8-4c0.5-1.3,1.3-2.4,2.2-3.3c0.9-0.9,2-1.7,3.2-2.2c1.2-0.5,2.5-0.8,4-0.8h15.2
		c1.4,0,2.7,0.3,4,0.8c1.2,0.5,2.3,1.3,3.3,2.2c0.9,0.9,1.7,2,2.2,3.3c0.5,1.3,0.8,2.6,0.8,4V76c0,1.1-0.4,2-1.1,2.7
		c-0.7,0.7-1.6,1.1-2.7,1.1c-1,0-1.9-0.4-2.7-1.1c-0.7-0.7-1.1-1.6-1.1-2.7v-3.1h-20.6V76c0,1.1-0.4,2-1.1,2.7
		c-0.7,0.7-1.6,1.1-2.7,1.1c-1,0-1.9-0.4-2.7-1.1c-0.7-0.7-1.1-1.6-1.1-2.7V56.1z M167.8,65.4h20.6v-9.2c0-0.7-0.3-1.4-0.8-1.9
		c-0.5-0.5-1.2-0.8-2-0.8h-15.2c-0.7,0-1.3,0.3-1.9,0.8c-0.5,0.6-0.8,1.2-0.9,1.9V65.4z"/>
	<path class="st0" d="M200.1,75.2c0-1,0.4-1.9,1.1-2.7c0.7-0.7,1.6-1.1,2.7-1.1h21.3c0.7,0,1.4-0.2,1.9-0.7c0.5-0.5,0.8-1.1,0.8-1.9
		c0-0.8-0.3-1.4-0.8-1.9c-0.5-0.5-1.2-0.7-1.9-0.7h-14.3c-1.4,0-2.7-0.3-4-0.8c-1.2-0.5-2.3-1.3-3.3-2.2s-1.7-2-2.2-3.2
		c-0.5-1.2-0.8-2.5-0.8-4c0-1.4,0.3-2.7,0.8-4c0.5-1.2,1.3-2.3,2.2-3.3c0.9-0.9,2-1.7,3.3-2.2c1.2-0.5,2.6-0.8,4-0.8h18.5
		c1.1,0,2,0.4,2.7,1.1c0.7,0.7,1.1,1.6,1.1,2.7c0,1-0.4,1.9-1.1,2.7c-0.7,0.7-1.6,1.1-2.7,1.1h-18.5c-0.7,0-1.4,0.2-1.9,0.7
		c-0.5,0.5-0.8,1.1-0.8,1.9c0,0.7,0.3,1.4,0.8,1.9c0.5,0.5,1.2,0.7,1.9,0.7h14.3c1.4,0,2.7,0.3,4,0.8c1.2,0.5,2.3,1.3,3.3,2.2
		c0.9,0.9,1.7,2,2.2,3.2c0.5,1.2,0.8,2.6,0.8,4s-0.3,2.7-0.8,4c-0.5,1.2-1.3,2.3-2.2,3.2c-0.9,0.9-2,1.6-3.3,2.2
		c-1.2,0.5-2.6,0.8-4,0.8h-21.3c-1,0-1.9-0.4-2.7-1.1C200.5,77.2,200.1,76.3,200.1,75.2z"/>
	<path class="st0" d="M238.1,49.5c0-1.1,0.4-2,1.1-2.7c0.7-0.7,1.6-1.1,2.7-1.1h23.6c1,0,1.9,0.4,2.7,1.1c0.7,0.7,1.1,1.6,1.1,2.7
		c0,1-0.4,1.9-1.1,2.7s-1.6,1.1-2.7,1.1h-8V76c0,1.1-0.4,2-1.1,2.7c-0.7,0.7-1.6,1.1-2.7,1.1c-1,0-1.9-0.4-2.7-1.1
		c-0.7-0.7-1.1-1.6-1.1-2.7V53.3h-8c-1,0-1.9-0.4-2.7-1.1C238.5,51.4,238.1,50.6,238.1,49.5z"/>
	<path class="st0" d="M279.9,58.4h18.4c1,0,1.9,0.4,2.7,1.1c0.7,0.7,1.1,1.6,1.1,2.7c0,1-0.4,1.9-1.1,2.7c-0.7,0.7-1.6,1.1-2.7,1.1
		h-18.4v2.7c0,0.8,0.3,1.5,0.8,2c0.5,0.5,1.2,0.8,2,0.8h20.8c1,0,1.9,0.4,2.7,1.1c0.7,0.7,1.1,1.6,1.1,2.7c0,1-0.4,1.9-1.1,2.7
		c-0.7,0.7-1.6,1.1-2.7,1.1h-20.8c-1.4,0-2.7-0.3-4-0.8c-1.2-0.5-2.3-1.3-3.3-2.2c-0.9-0.9-1.7-2-2.2-3.3c-0.5-1.2-0.8-2.6-0.8-4
		V56.1c0-1.4,0.3-2.8,0.8-4c0.5-1.3,1.3-2.4,2.2-3.3c0.9-0.9,2-1.6,3.3-2.2c1.2-0.5,2.6-0.8,4-0.8h20.9c1,0,1.9,0.4,2.7,1.1
		c0.7,0.7,1.1,1.6,1.1,2.7c0,1.1-0.4,2-1.1,2.7c-0.7,0.7-1.6,1.1-2.7,1.1h-20.9c-0.8,0-1.4,0.3-1.9,0.8c-0.5,0.5-0.8,1.2-0.8,1.9
		V58.4z"/>
	<path class="st0" d="M337.5,69.1c0-0.8-0.3-1.4-0.8-2c-0.5-0.5-1.2-0.8-1.9-0.8h-16.5V76c0,1.1-0.4,2-1.1,2.7
		c-0.7,0.7-1.6,1.1-2.7,1.1c-1,0-1.9-0.4-2.7-1.1c-0.7-0.7-1.1-1.6-1.1-2.7V47.4c0-0.5,0.2-0.9,0.5-1.2c0.3-0.3,0.7-0.5,1.2-0.5
		h21.3c1.7,0,3.1,0.3,4.4,0.8c1.3,0.5,2.3,1.3,3.2,2.2c0.9,0.9,1.5,2,2,3.3c0.5,1.3,0.7,2.6,0.7,4c0,1.3-0.3,2.5-0.8,3.6
		c-0.6,1.1-1.3,1.9-2.2,2.4c1.4,0.6,2.4,1.5,3.1,2.7s1,2.7,1,4.3V76c0,1.1-0.4,2-1.1,2.7c-0.7,0.7-1.6,1.1-2.7,1.1
		c-1,0-1.9-0.4-2.7-1.1c-0.7-0.7-1.1-1.6-1.1-2.7V69.1z M336.4,56.1c0-0.7-0.3-1.4-0.8-1.9c-0.5-0.5-1.2-0.8-1.9-0.8h-15.4v5.4h15.4
		c0.7,0,1.4-0.3,1.9-0.8C336.1,57.4,336.4,56.8,336.4,56.1z"/>
	<path class="st0" d="M367.6,43.5c0-0.5,0.2-1,0.5-1.3c0.4-0.4,0.8-0.5,1.3-0.5h23.1c1.6,0,3.1,0.3,4.5,0.9c1.4,0.6,2.6,1.4,3.6,2.5
		c1,1,1.9,2.3,2.5,3.6c0.6,1.4,0.9,2.9,0.9,4.5c0,1.6-0.3,3.1-0.9,4.5c-0.6,1.4-1.4,2.6-2.5,3.6c-1,1-2.3,1.8-3.6,2.4
		c-1.4,0.6-2.9,0.9-4.5,0.9H376v10.7c0,1.2-0.4,2.2-1.2,3c-0.8,0.8-1.8,1.2-3,1.2c-1.2,0-2.2-0.4-3-1.2c-0.8-0.8-1.2-1.8-1.2-3V43.5
		z M395.5,53.1c0-0.8-0.3-1.5-0.9-2.2c-0.6-0.6-1.3-0.9-2.1-0.9H376v6.1h16.5c0.8,0,1.5-0.3,2.1-0.9C395.2,54.7,395.5,54,395.5,53.1
		z"/>
	<path class="st0" d="M434.4,69.1c0-0.8-0.3-1.4-0.8-2c-0.5-0.5-1.2-0.8-1.9-0.8h-16.5V76c0,1.1-0.4,2-1.1,2.7
		c-0.7,0.7-1.6,1.1-2.7,1.1c-1,0-1.9-0.4-2.7-1.1c-0.7-0.7-1.1-1.6-1.1-2.7V47.4c0-0.5,0.2-0.9,0.5-1.2c0.3-0.3,0.7-0.5,1.2-0.5
		h21.3c1.7,0,3.1,0.3,4.4,0.8c1.3,0.5,2.3,1.3,3.2,2.2c0.9,0.9,1.5,2,2,3.3c0.5,1.3,0.7,2.6,0.7,4c0,1.3-0.3,2.5-0.8,3.6
		c-0.6,1.1-1.3,1.9-2.2,2.4c1.4,0.6,2.4,1.5,3.1,2.7s1,2.7,1,4.3V76c0,1.1-0.4,2-1.1,2.7c-0.7,0.7-1.6,1.1-2.7,1.1
		c-1,0-1.9-0.4-2.7-1.1c-0.7-0.7-1.1-1.6-1.1-2.7V69.1z M433.3,56.1c0-0.7-0.3-1.4-0.8-1.9c-0.5-0.5-1.2-0.8-1.9-0.8h-15.4v5.4h15.4
		c0.7,0,1.4-0.3,1.9-0.8C433,57.4,433.3,56.8,433.3,56.1z"/>
	<path class="st0" d="M446.4,56.1c0-1.4,0.3-2.8,0.8-4c0.5-1.3,1.3-2.4,2.2-3.3c0.9-0.9,2-1.7,3.2-2.2c1.2-0.5,2.6-0.8,4.1-0.8h12.7
		c1.4,0,2.7,0.3,4,0.8c1.2,0.5,2.3,1.3,3.2,2.2c0.9,0.9,1.6,2,2.2,3.3c0.5,1.3,0.8,2.6,0.8,4v12.7c0,1.4-0.3,2.7-0.8,4
		c-0.5,1.2-1.3,2.3-2.2,3.3c-0.9,0.9-2,1.7-3.2,2.2c-1.2,0.5-2.6,0.8-4,0.8h-12.7c-1.5,0-2.8-0.3-4.1-0.8c-1.2-0.5-2.3-1.3-3.2-2.2
		c-0.9-0.9-1.6-2-2.2-3.3c-0.5-1.2-0.8-2.6-0.8-4V56.1z M472.1,56.1c0-0.8-0.3-1.5-0.8-2c-0.5-0.5-1.2-0.8-1.9-0.8h-12.7
		c-0.7,0-1.4,0.3-1.9,0.8c-0.5,0.5-0.8,1.2-0.8,2v12.7c0,0.8,0.3,1.4,0.8,2c0.5,0.5,1.2,0.8,1.9,0.8h12.7c0.7,0,1.4-0.3,1.9-0.8
		c0.5-0.5,0.8-1.2,0.8-2V56.1z"/>
</g>
<g>
	<path class="st0" d="M82.4,29.6c-1.7-1.9-3.5-3.6-5.5-5.2c-0.2,0.4,0.1,1.2,0.4,1.8c0.4,1,0.4,2.1,0,3c-0.6,1.3-1.9,3.1-4.7,5.1
		c-0.3,0.2-0.7,0.5-1.1,0.7c-6.7,4.2-22,15.2-22,15.2s-15.3-11-22-15.2c-0.5-0.3-0.9-0.6-1.3-0.9c-2.7-1.9-3.9-3.7-4.4-5
		c-0.4-1-0.4-2.1,0-3c0.3-0.7,0.7-1.7,0.2-2c-1.9,1.5-3.6,3.1-5.2,4.8C9,37.3,4.4,48.4,4.7,60.6C5.4,84.2,24.5,103.3,48,104
		c25.2,0.7,45.8-19.5,45.8-44.5C93.8,48,89.5,37.5,82.4,29.6z M49.3,93.6c-18.9,0-34.2-15.3-34.2-34.2c0-5.8,1.4-11.2,3.9-15.9
		c0,2.8-0.2,15.3,0,25c0.2,11,13.7,15.9,13.7,15.9V51.6c0,0,15.1,10.1,16.3,33.2c0,0.5,0.9,0.5,0.9,0c0.6-24.8,16.3-33.2,16.3-33.2
		v32.8c0,0,13.5-4.9,13.7-15.9c0.2-9,0.1-20.3,0-24.2c2.3,4.6,3.5,9.7,3.5,15.1C83.5,78.3,68.1,93.6,49.3,93.6z"/>
	<path class="st0" d="M73.1,26.4c0,1.4-0.4,2.8-1.1,3.9c-0.8,1.2-2.5,1.5-3.6,0.6c-1.8-1.4-5-3.5-9.1-4.9c-0.2-0.1-0.4-0.1-0.6-0.2
		c-2.9-0.9-6.1-1.4-9.3-1.4c-3.3,0-6.5,0.5-9.5,1.5c-0.2,0.1-0.4,0.1-0.6,0.2c-4,1.4-7.2,3.5-9,4.9c-1.2,0.9-2.8,0.6-3.6-0.6
		c-0.8-1.1-1.2-2.5-1.2-4c0-0.1,0-0.3,0-0.4c0.1-2.3,1.5-4.3,3.5-5.5c0.7-0.4,1.5-0.8,2.2-1.2c5.5-2.8,11.7-4.3,18.2-4.3
		c6.6,0,12.9,1.6,18.4,4.4c0.7,0.3,1.3,0.7,1.9,1.1c1.5,0.9,2.7,2.3,3.2,4.1C73,25.1,73.1,25.7,73.1,26.4z"/>
</g>
</svg>
